<?xml version="1.0" encoding="utf-8"?>
<!-- Generator: Adobe Illustrator 23.0.6, SVG Export Plug-In . SVG Version: 6.00 Build 0)  -->
<svg version="1.1" id="Lager_1" xmlns="http://www.w3.org/2000/svg" xmlns:xlink="http://www.w3.org/1999/xlink" x="0px" y="0px"
	 viewBox="0 0 612 792" style="enable-background:new 0 0 612 792;" xml:space="preserve">
<style type="text/css">
	.st0{fill:#252121;}
	.st1{fill:#2C2828;}
</style>
<g id="gv7F2Q.tif">
	<g>
		<path class="st0" d="M417.17,438.36c-0.39,0.09-3.03,0.13-4.54,0.06c-0.78-0.04-0.99,0.21-0.99,1c0.04,4.55-0.03,9.11,0.05,13.66
			c0.02,1.17-0.56,1.01-1.3,1.05c-0.8,0.04-1.19-0.04-1.18-1.05c0.07-4.47-0.02-8.95,0.06-13.42c0.02-1.12-0.34-1.32-1.32-1.24
			c-1.07,0.08-2.16-0.01-3.23,0.03c-0.67,0.03-1.05-0.1-1.01-0.89c0.03-0.68,0.13-1.04,0.98-1.03c4.15,0.05,12.09-0.01,12.42,0.14
			c0.27,0.12,0.28,0.63,0.28,0.96C417.41,437.95,417.41,438.31,417.17,438.36z"/>
		<path class="st0" d="M231.18,427.87c12.2-29.85,24.37-59.61,36.65-89.64c11.96,29.34,23.84,58.48,35.78,87.78
			c-1.78,0-3.39,0-5.01,0c-2.84,0-5.68-0.06-8.52,0.03c-1,0.03-1.35-0.34-1.68-1.2c-2.03-5.27-4.14-10.51-6.18-15.78
			c-0.26-0.67-0.58-0.89-1.28-0.89c-8.6,0.03-17.19,0.05-25.79,0c-1.22-0.01-1.72,0.45-2.16,1.49c-1.36,3.18-2.36,6.54-4.43,9.38
			c-3.68,5.03-8.61,7.94-14.82,8.67C232.95,427.8,232.17,427.97,231.18,427.87z M267.96,372.48c-0.09,0.01-0.19,0.03-0.28,0.04
			c-2.79,7.08-5.56,14.17-8.38,21.24c-0.44,1.1,0.27,0.89,0.83,0.89c5.11,0.01,10.22,0,15.33,0c0.31,0,0.64,0.07,1.01-0.18
			C273.64,387.15,270.8,379.81,267.96,372.48z"/>
		<path class="st0" d="M356.57,355.5c-7.08-3.14-14.32-3.79-21.71-1.45c-6,1.9-10.89,5.45-14.7,10.44
			c-8.22,10.77-8.1,24.84-1.27,35.16c2.66,4.02,6.07,7.26,10.25,9.68c4.22,2.45,8.78,3.75,13.65,3.93c4.81,0.18,9.4-0.89,13.89-2.89
			c0,4.66-0.02,9.18,0.02,13.7c0,0.67-0.38,0.8-0.85,0.93c-5.2,1.44-10.46,2.03-15.86,1.57c-6.44-0.56-12.43-2.48-17.96-5.73
			c-10.9-6.42-17.85-15.83-20.56-28.21c-2.07-9.46-1.29-18.75,2.69-27.63c4.56-10.16,11.96-17.52,22.2-22.05
			c5.64-2.5,11.49-3.76,17.62-3.75c4.01,0,7.94,0.67,11.8,1.71c0.51,0.14,0.93,0.29,0.92,1.01c-0.04,4.4-0.02,8.8-0.03,13.2
			C356.67,355.2,356.62,355.3,356.57,355.5z"/>
		<path class="st0" d="M397.54,427.71c-4.17-1.71-7.35-4.34-9.71-7.92c-2.33-3.53-3.5-7.45-3.6-11.7
			c-0.42-17.67-0.07-35.35-0.16-53.02c-0.01-1.03-0.19-1.33-1.28-1.32c-5.68,0.06-11.36,0.01-17.04,0.05
			c-0.89,0.01-1.14-0.21-1.13-1.11c0.05-3.72,0.06-7.44-0.01-11.16c-0.02-1.01,0.26-1.23,1.25-1.23
			c16.04,0.03,32.08,0.02,48.12,0.03c0.95,0,2.34-0.09,2.77,0.18c0.22,0.14,0.17,1.82,0.17,2.77c0.02,3.16-0.03,6.32,0.02,9.48
			c0.02,0.87-0.25,1.04-1.07,1.04c-5.64-0.04-11.28,0.02-16.92-0.05c-1.17-0.01-1.45,0.3-1.44,1.45
			c0.03,23.88,0.03,47.76,0.03,71.64C397.54,427.06,397.54,427.3,397.54,427.71z"/>
		<path class="st0" d="M195.6,412.58c3.13,1.19,6.18,1.28,9.24,0.2c5.33-1.88,8.88-6.88,8.88-12.53c0-13.95-0.08-27.91,0.02-41.86
			c0.07-9.02,4.12-15.76,12.24-19.9c0.38-0.2,0.77-0.41,1.26-0.42c0,1.09,0,2.16,0,3.23c0,19.63,0.08,39.26-0.02,58.89
			c-0.07,13.92-10.47,24.83-23.22,26.55c-2.55,0.34-5.09,0.29-7.64-0.02c-0.65-0.08-0.76-0.33-0.76-0.89
			C195.61,421.48,195.6,417.12,195.6,412.58z"/>
		<path class="st1" d="M207.85,439.93c-1.41,2.94-2.82,5.89-4.32,9.02c-1.49-3.1-2.9-6.05-4.31-8.99c-0.09,0-0.17,0.01-0.26,0.01
			c-0.07,0.83-0.18,1.66-0.2,2.49c-0.11,3.47-0.23,6.95-0.27,10.42c-0.01,0.94-0.21,1.26-1.24,1.27c-1.12,0.01-1.47-0.2-1.4-1.41
			c0.31-5.1,0.51-10.2,0.72-15.31c0.03-0.63,0.15-0.89,0.86-0.91c2.4-0.05,2.41-0.08,3.4,2.08c0.73,1.59,1.45,3.19,2.2,4.77
			c0.1,0.22,0.12,0.6,0.49,0.6c0.35,0,0.4-0.37,0.5-0.59c0.9-1.91,1.82-3.81,2.64-5.75c0.37-0.88,0.86-1.15,1.8-1.11
			c2,0.08,1.95,0.03,2.04,2.03c0.2,4.79,0.46,9.57,0.68,14.35c0.03,0.59,0.29,1.35-0.82,1.21c-0.8-0.1-1.79,0.41-1.79-1.19
			c0-3.95-0.21-7.9-0.33-11.86c-0.01-0.35-0.06-0.7-0.09-1.06C208.04,439.98,207.95,439.96,207.85,439.93z"/>
		<path class="st1" d="M345.83,439.83c-1.53,3.16-2.95,6.1-4.4,9.12c-1.34-2.78-2.62-5.46-3.92-8.14c-0.12-0.26-0.11-0.75-0.55-0.64
			c-0.41,0.1-0.21,0.54-0.22,0.83c-0.16,4.07-0.34,8.14-0.43,12.21c-0.03,1.48-1.05,0.75-1.67,0.9c-0.86,0.2-0.85-0.35-0.82-0.97
			c0.25-5.31,0.5-10.61,0.71-15.92c0.02-0.53,0.17-0.74,0.69-0.66c0.04,0.01,0.08,0,0.12,0c2.39-0.09,2.39-0.09,3.4,2.08
			c0.72,1.55,1.44,3.1,2.18,4.65c0.13,0.26,0.12,0.73,0.52,0.7c0.37-0.02,0.4-0.46,0.53-0.74c0.92-1.94,1.8-3.9,2.71-5.85
			c0.32-0.69,2.92-1.29,3.48-0.76c0.16,0.15,0.17,0.51,0.19,0.77c0.13,2.47,0.26,4.94,0.37,7.42c0.13,2.87,0.24,5.75,0.39,8.62
			c0.02,0.44-0.02,0.7-0.53,0.66c-0.2-0.01-0.4-0.03-0.6,0c-1.1,0.19-1.45-0.15-1.47-1.36c-0.05-4.11-0.28-8.22-0.44-12.33
			C346.06,440.33,346,440.23,345.83,439.83z"/>
		<path class="st1" d="M383.1,439.52c-0.23,2,0.2,3.89,0.15,5.79c-0.06,2.64-0.07,5.28,0.01,7.91c0.04,1.22-0.75,0.82-1.34,0.88
			c-0.63,0.06-1.09,0.08-1.08-0.88c0.06-5.27,0.04-10.55,0.01-15.83c0-0.67,0.18-0.8,0.85-0.89c1.6-0.2,2.45,0.36,3.16,1.87
			c1.91,4.03,4.03,7.95,6.07,11.91c0.17,0.33,0.39,0.63,0.73,1.16c0-1.51,0-2.72,0-3.93c-0.01-3.36,0.01-6.71-0.06-10.07
			c-0.02-0.92,0.4-0.98,1.06-0.89c0.57,0.08,1.37-0.38,1.36,0.85c-0.05,5.27-0.03,10.55-0.01,15.83c0,0.66-0.18,0.82-0.86,0.91
			c-1.65,0.22-2.53-0.36-3.26-1.91c-1.88-3.99-3.99-7.87-6.02-11.8C383.72,440.12,383.63,439.75,383.1,439.52z"/>
		<path class="st0" d="M245.06,439.38c0.39,4.62,0.12,9.13,0.25,13.64c0.03,1.07-0.42,1.1-1.24,1.11c-0.84,0.01-1.24-0.08-1.23-1.12
			c0.07-5.12,0.05-10.24,0.01-15.36c-0.01-0.92,0.28-1.05,1.13-1.14c1.5-0.16,2.23,0.44,2.87,1.73c2.04,4.14,4.2,8.23,6.31,12.33
			c0.12,0.24,0.29,0.45,0.5,0.76c0.41-0.55,0.24-1.07,0.2-1.54c-0.38-4.15-0.07-8.31-0.21-12.47c-0.04-1.2,0.78-0.71,1.29-0.76
			c0.55-0.05,1.16-0.24,1.15,0.79c-0.05,5.32-0.03,10.64-0.01,15.96c0,0.64-0.21,0.72-0.8,0.82c-1.73,0.28-2.6-0.46-3.34-2
			c-1.94-4.05-4.07-8.02-6.13-12.02C245.69,439.86,245.63,439.51,245.06,439.38z"/>
		<path class="st1" d="M302.16,448.82c0,0.68-0.09,1.37,0.02,2.04c0.23,1.4-0.4,2.1-1.64,2.58c-3.07,1.19-6.1,1.7-8.96-0.44
			c-1.85-1.38-2.55-3.45-2.81-5.62c-0.27-2.27-0.19-4.54,0.69-6.72c0.96-2.36,2.6-3.91,5.14-4.3c2.89-0.44,5.36,0.43,7.26,2.71
			c0.14,0.17,0.42,0.36,0.12,0.58c-0.42,0.3-0.87,0.55-1.32,0.8c-0.69,0.39-0.79-0.34-1.07-0.63c-2.08-2.21-6.6-2.68-7.95,1.78
			c-0.76,2.51-0.78,5.05,0,7.55c0.99,3.19,4.95,4.48,7.75,2.61c0.28-0.19,0.35-0.4,0.35-0.69c0-1.24-0.03-2.48,0.01-3.72
			c0.02-0.64-0.31-0.7-0.82-0.69c-1.08,0.02-2.16-0.04-3.24,0.02c-0.68,0.04-0.81-0.25-0.76-0.84c0.04-0.51-0.12-1.05,0.72-1.03
			c1.92,0.03,3.84,0.02,5.76,0c0.59-0.01,0.75,0.22,0.73,0.78c-0.04,1.08-0.01,2.16-0.01,3.24
			C302.15,448.82,302.15,448.82,302.16,448.82z"/>
		<path class="st1" d="M226.56,449.29c0,0-3.08-0.24-3.51,0.2c-0.47,0.49-0.72,1.64-1.33,3.21c-0.07,0.19-0.16,0.37-0.23,0.55
			c-0.47,1.2-1.33,1.41-2.45,0.65c-0.38-0.25-0.19-0.47-0.11-0.69c1.93-5.35,3.86-10.69,5.79-16.04c0.13-0.37,0.29-0.58,0.74-0.63
			c2.37-0.28,2.57-0.15,3.38,2.1c1.69,4.71,3.41,9.42,5.11,14.13c0.18,0.51,0.63,1.13-0.42,1.29c-0.69,0.08-1.58,1.14-1.91-0.53
			c-0.23-1.2-0.81-2.32-1.18-3.5c-0.09-0.29-0.21-0.49-0.38-0.6c-0.28-0.19-0.6-0.16-0.74-0.15
			C228.72,449.32,226.56,449.29,226.56,449.29z M229.43,447.38c-0.95-2.75-1.87-5.4-2.79-8.05c-1.14,2.52-1.99,4.99-2.86,7.46
			c-0.2,0.55,0.05,0.6,0.49,0.6C225.95,447.38,227.62,447.38,229.43,447.38z"/>
		<path class="st1" d="M280.21,453.61c-0.18,0.49-0.76,0.37-1.13,0.58c-0.8,0.46-1.26,0.24-1.52-0.68
			c-0.33-1.19-0.84-2.32-1.18-3.51c-0.17-0.58-0.45-0.74-1.01-0.73c-1.92,0.03-3.84,0.04-5.75,0c-0.6-0.01-0.82,0.23-0.99,0.75
			c-0.38,1.17-0.89,2.31-1.21,3.5c-0.23,0.84-0.56,1-1.38,0.76c-1.1-0.31-1.33-0.64-0.87-1.83c1.87-4.9,3.61-9.86,5.34-14.81
			c0.3-0.87,0.72-1.29,1.62-1.08c0.71,0.17,1.76-0.54,2.13,0.46c2,5.41,3.91,10.85,5.85,16.27
			C280.11,453.37,280.14,453.44,280.21,453.61z M272.49,438.92c-0.98,2.84-1.85,5.34-2.72,7.84c-0.21,0.61,0.15,0.63,0.61,0.62
			c1.39-0.02,2.79-0.03,4.18,0.01c0.72,0.02,0.76-0.19,0.53-0.82C274.24,444.15,273.44,441.71,272.49,438.92z"/>
		<path class="st1" d="M313.02,445.38c0-2.6,0.02-5.2-0.01-7.8c-0.01-0.72,0.11-1.06,0.97-1.05c3.48,0.05,6.96,0.04,10.44,0.01
			c0.71-0.01,0.96,0.15,0.97,0.92c0.01,0.82-0.25,1.01-1.03,1c-2.72-0.04-5.44,0.02-8.16-0.02c-0.67-0.01-0.82,0.2-0.8,0.81
			c0.03,1.28,0.04,2.56,0,3.84c-0.02,0.68,0.2,0.89,0.89,0.88c2.12-0.04,4.24,0.02,6.36-0.03c0.73-0.02,0.94,0.18,0.94,0.93
			c0,0.76-0.22,0.91-0.95,0.9c-2.12-0.05-4.24,0.04-6.36,0c-0.71-0.01-0.9,0.22-0.89,0.88c0.03,1.56,0.07,3.12-0.01,4.68
			c-0.04,0.87,0.35,0.98,1.06,0.98c2.68-0.02,5.36,0.02,8.04-0.02c0.67-0.01,0.91,0.17,0.89,0.86c-0.01,0.65-0.07,1.01-0.89,1
			c-3.52-0.05-7.04-0.04-10.56,0c-0.76,0.01-0.93-0.22-0.92-0.95C313.05,450.58,313.02,447.98,313.02,445.38z"/>
		<path class="st0" d="M359.04,445.2c0-2.6,0.02-5.2-0.02-7.8c-0.01-0.68,0.19-0.87,0.86-0.86c3.52,0.03,7.04,0.05,10.56-0.01
			c0.84-0.01,0.84,0.35,0.86,0.99c0.02,0.73-0.19,0.95-0.94,0.94c-2.68-0.05-5.36,0.03-8.04-0.03c-0.79-0.02-0.93,0.22-0.9,0.93
			c0.06,1.16,0.07,2.32,0,3.48c-0.06,0.86,0.13,1.19,1.09,1.15c2.08-0.08,4.16,0.01,6.24-0.05c0.82-0.02,0.86,0.33,0.88,0.99
			c0.02,0.71-0.23,0.85-0.89,0.84c-2.12-0.03-4.24,0.04-6.36-0.01c-0.72-0.02-0.99,0.12-0.96,0.89c0.06,1.56,0.07,3.12,0,4.68
			c-0.04,0.85,0.3,0.99,1.03,0.98c2.64-0.03,5.28,0.02,7.92-0.02c0.7-0.01,0.99,0.08,0.95,0.87c-0.04,0.65-0.06,0.99-0.88,0.97
			c-3.52-0.05-7.04-0.04-10.56-0.01c-0.71,0.01-0.85-0.23-0.84-0.89C359.06,450.56,359.04,447.88,359.04,445.2z"/>
	</g>
</g>
</svg>
